# xmcd
#
# Track frame offsets:
#	150
#	12631
#	25553
#	38866
#	50150
#	61543
#	73055
#	84542
#	94035
#	104783
#
# Disc length: 1562 seconds
#
# Revision: 1
# Processed by: cddbd v1.5.1PL0 Copyright (c) Steve Scherf et al.
# Submitted via: audiograbber 1.82.02
#
DISCID=8206180a
DTITLE=Charley Pride - The Pride Of Country Music
DYEAR=2005
DGENRE=Country
TTITLE0=Crystal Chandeliers
TTITLE1=Kaw-Liga
TTITLE2=(I'm So) Afraid Of Losing You
TTITLE3=It's Gonna Take A Little Bit Longer
TTITLE4=The Happiness Of Having You
TTITLE5=Shutters And Boards
TTITLE6=My Eyes Can Only See As Far As You
TTITLE7=Kiss An Angel Good Morning
TTITLE8=Mississippi Cotton Pickin' Delta Town
TTITLE9=Help Me Make It Through The Night
EXTD=
EXTT0=
EXTT1=
EXTT2=
EXTT3=
EXTT4=
EXTT5=
EXTT6=
EXTT7=
EXTT8=
EXTT9=
PLAYORDER=
